<?xml version="1.0" encoding="UTF-8" standalone="no"?>
<!DOCTYPE svg PUBLIC "-//W3C//DTD SVG 1.1//EN" "http://www.w3.org/Graphics/SVG/1.1/DTD/svg11.dtd">
<svg xmlns="http://www.w3.org/2000/svg" version="1.1" viewBox="0.00 0.00 1920.00 544.00" width="1920.00" height="544.00">
<g stroke-width="2.00" fill="none" stroke-linecap="butt">
<path stroke="#d2e0a2" vector-effect="non-scaling-stroke" d="
  M 868.81 243.25
  C 870.10 242.39 871.47 240.45 873.04 239.20
  C 876.96 236.08 881.12 233.62 885.52 231.83
  C 886.15 231.58 886.56 230.97 886.56 230.29
  L 886.56 206.24
  C 886.56 205.93 886.30 205.67 885.99 205.67
  L 868.56 205.67
  C 868.28 205.67 868.06 205.89 868.06 206.17
  L 868.06 242.85
  C 868.06 243.23 868.49 243.46 868.81 243.25"
/>
<path stroke="#d2e0a2" vector-effect="non-scaling-stroke" d="
  M 770.24 215.16
  C 770.24 214.92 770.04 214.72 769.80 214.72
  L 752.67 214.72
  C 752.30 214.72 752.00 215.02 752.00 215.38
  L 752.00 233.15
  C 752.00 233.79 751.48 234.31 750.84 234.31
  L 742.14 234.31
  C 741.70 234.31 741.35 234.66 741.35 235.09
  L 741.35 248.60
  C 741.35 248.91 741.61 249.17 741.92 249.17
  L 751.78 249.17
  C 752.07 249.17 752.31 249.40 752.30 249.69
  C 752.07 261.29 751.91 270.64 751.80 277.75
  C 751.68 286.36 753.34 296.42 760.46 301.33
  C 768.82 307.11 780.45 306.13 789.63 302.14
  C 790.07 301.95 790.29 301.45 790.13 301.00
  L 785.64 288.28
  C 785.47 287.80 784.92 287.57 784.46 287.79
  C 779.95 289.95 774.01 290.52 771.30 285.33
  C 770.75 284.28 770.46 282.34 770.43 279.51
  C 770.25 265.60 770.23 255.90 770.37 250.40
  C 770.38 249.94 770.76 249.57 771.22 249.57
  L 785.90 249.57
  C 786.25 249.57 786.53 249.29 786.53 248.94
  L 786.53 235.11
  C 786.53 234.75 786.24 234.46 785.88 234.46
  L 770.83 234.46
  C 770.50 234.46 770.24 234.20 770.24 233.87
  L 770.24 215.16"
/>
<path stroke="#d2e0a2" vector-effect="non-scaling-stroke" d="
  M 860.20 251.13
  C 856.24 243.48 850.18 238.17 842.01 235.22
  C 831.34 231.37 816.29 232.45 807.23 239.20
  C 792.36 250.30 787.35 268.87 795.10 285.53
  C 798.62 293.09 804.54 298.71 812.87 302.40
  C 825.93 308.18 841.79 305.88 853.24 297.61
  C 856.22 295.46 859.84 291.51 864.09 285.76
  C 869.25 278.78 874.05 270.53 879.34 263.63
  C 885.31 255.83 890.27 249.75 899.47 248.97
  C 908.23 248.23 915.61 252.86 917.53 261.50
  C 917.80 262.71 917.95 266.07 917.99 271.56
  C 918.04 277.97 918.04 288.53 918.00 303.24
  C 918.00 303.63 918.31 303.94 918.70 303.94
  L 935.52 303.94
  C 935.76 303.94 935.96 303.74 935.97 303.50
  C 936.33 288.89 936.36 275.33 936.07 262.83
  C 935.69 246.29 925.50 234.56 908.90 232.86
  C 895.33 231.47 883.71 235.32 874.06 244.42
  C 870.08 248.17 867.01 251.65 864.86 254.86
  C 856.76 266.93 850.58 275.49 846.32 280.55
  C 837.77 290.73 822.64 293.16 814.07 281.95
  C 810.00 276.62 809.33 268.90 811.45 262.93
  C 814.61 254.00 820.73 249.55 829.81 249.57
  C 836.84 249.59 842.10 253.26 845.48 259.13
  C 845.81 259.70 846.53 259.90 847.10 259.57
  L 859.90 252.18
  C 860.26 251.97 860.40 251.51 860.20 251.13"
/>
<path stroke="#d2e0a2" vector-effect="non-scaling-stroke" d="
  M 716.26 243.05
  C 715.24 242.43 714.39 240.80 713.47 240.02
  C 708.82 236.09 703.88 233.80 698.64 233.17
  C 685.59 231.59 675.29 236.10 667.75 246.69
  C 664.21 251.66 662.00 257.27 661.11 263.51
  C 659.55 274.41 661.93 284.05 668.25 292.43
  C 675.42 301.94 685.15 306.19 697.45 305.18
  C 704.91 304.57 711.11 301.62 716.05 296.34
  C 716.32 296.05 716.81 296.25 716.81 296.65
  L 716.81 303.19
  C 716.81 303.60 717.14 303.93 717.55 303.93
  L 733.49 303.93
  C 733.85 303.93 734.15 303.63 734.15 303.26
  L 734.15 234.62
  C 734.15 234.27 733.87 233.99 733.53 233.99
  L 716.97 233.99
  C 716.70 233.99 716.48 234.21 716.48 234.48
  L 716.48 242.93
  C 716.48 243.04 716.36 243.11 716.26 243.05"
/>
<path stroke="#d2e0a2" vector-effect="non-scaling-stroke" d="
  M 558.86 241.30
  L 558.86 234.48
  C 558.86 234.06 558.52 233.72 558.11 233.72
  L 542.10 233.72
  C 541.88 233.72 541.71 233.90 541.71 234.12
  L 541.71 303.32
  C 541.71 303.58 541.92 303.79 542.18 303.79
  L 558.61 303.79
  C 558.90 303.79 559.14 303.55 559.14 303.26
  C 559.09 289.43 559.12 277.67 559.23 267.98
  C 559.26 264.39 559.51 261.80 559.97 260.20
  C 561.89 253.51 566.46 249.63 573.75 249.60
  C 581.74 249.57 587.57 256.04 587.61 263.56
  C 587.71 284.09 587.71 297.37 587.62 303.42
  C 587.61 303.72 587.85 303.96 588.14 303.96
  L 604.88 303.96
  C 605.31 303.96 605.66 303.60 605.65 303.17
  C 605.62 298.30 605.59 286.55 605.57 267.94
  C 605.56 264.13 605.82 261.39 606.35 259.71
  C 608.51 252.80 614.44 248.70 621.90 249.72
  C 627.96 250.55 631.31 254.41 631.94 261.31
  C 632.43 266.68 632.66 270.16 632.63 271.76
  C 632.42 281.79 632.45 292.31 632.73 303.34
  C 632.74 303.63 632.98 303.87 633.28 303.87
  L 650.08 303.87
  C 650.29 303.87 650.46 303.70 650.46 303.49
  C 650.63 290.44 650.72 276.69 650.73 262.25
  C 650.74 252.51 646.29 240.50 637.05 235.98
  C 624.61 229.88 608.75 232.78 600.81 244.68
  C 600.67 244.89 600.36 244.89 600.22 244.67
  C 595.49 237.06 588.64 233.21 579.67 233.11
  C 571.61 233.02 564.93 235.85 559.63 241.60
  C 559.35 241.89 558.86 241.70 558.86 241.30"
/>
<path stroke="#d2e0a2" vector-effect="non-scaling-stroke" d="
  M 966.85 274.82
  L 1018.64 274.82
  C 1019.12 274.82 1019.52 274.44 1019.55 273.96
  C 1020.09 265.42 1019.02 256.68 1014.51 249.14
  C 1008.25 238.69 997.89 233.17 985.60 233.02
  C 975.52 232.90 966.85 234.76 959.28 241.41
  C 949.14 250.31 945.60 261.88 947.39 275.24
  C 948.22 281.42 950.62 287.05 954.61 292.14
  C 963.56 303.57 976.89 306.51 991.30 304.94
  C 1000.56 303.94 1008.79 300.13 1015.98 293.50
  C 1016.44 293.08 1016.45 292.36 1016.01 291.92
  L 1005.99 281.90
  C 1005.73 281.64 1005.30 281.63 1005.03 281.88
  C 997.87 288.54 986.41 292.24 977.50 288.47
  C 971.71 286.02 967.97 281.72 966.27 275.59
  C 966.16 275.20 966.45 274.82 966.85 274.82"
/>
<path stroke="#d2e0a2" vector-effect="non-scaling-stroke" d="
  M 1047.89 234.11
  L 1031.29 234.11
  C 1031.04 234.11 1030.83 234.31 1030.83 234.56
  L 1030.83 303.07
  C 1030.83 303.61 1031.26 304.04 1031.80 304.04
  L 1048.13 304.04
  C 1048.50 304.04 1048.80 303.74 1048.80 303.37
  C 1048.85 289.58 1048.82 280.81 1048.69 277.05
  C 1048.42 269.16 1048.85 263.85 1050.00 261.14
  C 1053.95 251.81 1063.30 249.99 1072.99 251.15
  C 1073.29 251.19 1073.55 250.96 1073.55 250.66
  L 1073.55 233.88
  C 1073.55 233.47 1073.23 233.13 1072.82 233.10
  C 1063.03 232.48 1055.09 235.95 1049.01 243.51
  C 1048.81 243.75 1048.42 243.61 1048.42 243.30
  L 1048.42 234.63
  C 1048.42 234.34 1048.18 234.11 1047.89 234.11"
/>
<path stroke="#d2e0a2" vector-effect="non-scaling-stroke" d="
  M 1154.78 242.91
  C 1142.27 227.19 1119.26 231.15 1108.96 246.53
  C 1102.80 255.72 1101.07 266.21 1103.78 277.99
  C 1104.88 282.79 1107.39 286.61 1110.30 290.71
  C 1117.49 300.88 1130.28 304.26 1142.19 301.47
  C 1147.02 300.34 1151.13 297.90 1154.52 294.17
  C 1154.77 293.89 1155.24 294.05 1155.26 294.43
  C 1155.97 305.48 1152.11 315.58 1139.53 316.42
  C 1131.02 316.99 1123.12 314.46 1115.84 308.83
  C 1115.44 308.52 1114.87 308.63 1114.61 309.05
  L 1107.24 320.80
  C 1106.96 321.25 1107.05 321.83 1107.44 322.18
  C 1108.90 323.49 1110.60 324.68 1112.54 325.74
  C 1123.68 331.83 1135.53 333.57 1148.09 330.96
  C 1161.28 328.22 1171.66 317.01 1172.50 303.49
  C 1172.77 299.06 1173.02 293.04 1173.23 285.44
  C 1173.39 279.92 1173.10 274.02 1172.92 269.66
  C 1172.67 263.67 1173.79 254.99 1173.12 247.89
  C 1172.71 243.52 1173.40 238.66 1172.90 234.29
  C 1172.87 234.00 1172.63 233.79 1172.34 233.79
  L 1156.13 233.79
  C 1155.74 233.79 1155.42 234.11 1155.42 234.50
  L 1155.42 242.68
  C 1155.42 243.02 1154.99 243.18 1154.78 242.91"
/>
<path stroke="#d2e0a2" vector-effect="non-scaling-stroke" d="
  M 1253.85 274.68
  C 1254.35 274.68 1254.76 274.27 1254.76 273.77
  C 1254.71 266.28 1254.79 259.41 1251.67 252.89
  C 1245.68 240.38 1235.49 233.77 1221.11 233.06
  C 1214.56 232.73 1208.29 233.89 1202.30 236.52
  C 1191.26 241.38 1184.11 253.01 1183.04 264.77
  C 1182.01 276.17 1185.07 285.91 1192.23 294.00
  C 1196.62 298.96 1202.02 302.23 1208.43 303.81
  C 1224.55 307.79 1238.52 304.28 1250.33 293.28
  C 1250.73 292.91 1250.74 292.28 1250.35 291.89
  L 1240.63 282.18
  C 1240.36 281.91 1239.93 281.89 1239.64 282.13
  C 1234.06 286.75 1227.03 289.83 1219.73 289.53
  C 1210.81 289.17 1204.35 283.97 1202.05 275.17
  C 1201.98 274.92 1202.17 274.68 1202.43 274.68
  L 1253.85 274.68"
/>
<path stroke="#d2e0a2" vector-effect="non-scaling-stroke" d="
  M 886.44 304.17
  C 886.79 304.17 887.07 303.89 887.07 303.54
  L 887.07 261.44
  C 887.07 260.82 886.27 260.57 885.92 261.08
  L 868.83 285.98
  C 868.76 286.08 868.72 286.21 868.72 286.34
  L 868.72 303.54
  C 868.72 303.89 869.00 304.17 869.35 304.17
  L 886.44 304.17"
/>
<path stroke="#d2e0a2" vector-effect="non-scaling-stroke" d="
  M 1072.3173 288.4356
  C 1069.60 294.54 1072.40 301.71 1078.5726 304.4548
  C 1084.74 307.20 1091.95 304.48 1094.6627 298.3844
  C 1097.38 292.28 1094.58 285.11 1088.4074 282.3652
  C 1082.24 279.62 1075.03 282.34 1072.3173 288.4356"
/>
<path stroke="#d2e0a2" vector-effect="non-scaling-stroke" d="
  M 698.7850 249.3591
  C 688.45 248.91 679.67 257.51 679.1878 268.5826
  C 678.70 279.65 686.70 288.99 697.0350 289.4409
  C 707.37 289.89 716.15 281.29 716.6322 270.2174
  C 717.12 259.15 709.12 249.81 698.7850 249.3591"
/>
<path stroke="#d2e0a2" vector-effect="non-scaling-stroke" d="
  M 983.86 262.47
  C 991.35 262.42 996.90 262.43 1000.50 262.47
  C 1000.92 262.48 1001.25 262.09 1001.16 261.67
  C 999.37 252.98 992.63 247.80 983.76 247.86
  C 974.90 247.91 968.23 253.17 966.54 261.88
  C 966.46 262.30 966.79 262.69 967.22 262.68
  C 970.81 262.58 976.36 262.51 983.86 262.47"
/>
<path stroke="#d2e0a2" vector-effect="non-scaling-stroke" d="
  M 1138.1316 248.8814
  C 1128.47 248.76 1120.54 257.16 1120.4113 267.6263
  C 1120.28 278.10 1128.01 286.68 1137.6684 286.7986
  C 1147.33 286.92 1155.26 278.52 1155.3887 268.0537
  C 1155.52 257.58 1147.79 249.00 1138.1316 248.8814"
/>
<path stroke="#d2e0a2" vector-effect="non-scaling-stroke" d="
  M 1219.36 262.12
  C 1226.73 262.10 1232.19 262.12 1235.73 262.18
  C 1236.15 262.18 1236.47 261.80 1236.38 261.38
  C 1234.65 252.84 1228.04 247.72 1219.32 247.75
  C 1210.60 247.78 1204.02 252.93 1202.34 261.49
  C 1202.26 261.91 1202.58 262.29 1203.00 262.28
  C 1206.54 262.20 1211.99 262.14 1219.36 262.12"
/>
</g>
<path fill="none" d="
  M 1920.00 0.00
  L 1920.00 544.00
  L 0.00 544.00
  L 0.00 0.00
  L 1920.00 0.00
  Z
  M 868.81 243.25
  C 870.10 242.39 871.47 240.45 873.04 239.20
  C 876.96 236.08 881.12 233.62 885.52 231.83
  C 886.15 231.58 886.56 230.97 886.56 230.29
  L 886.56 206.24
  C 886.56 205.93 886.30 205.67 885.99 205.67
  L 868.56 205.67
  C 868.28 205.67 868.06 205.89 868.06 206.17
  L 868.06 242.85
  C 868.06 243.23 868.49 243.46 868.81 243.25
  Z
  M 770.24 215.16
  C 770.24 214.92 770.04 214.72 769.80 214.72
  L 752.67 214.72
  C 752.30 214.72 752.00 215.02 752.00 215.38
  L 752.00 233.15
  C 752.00 233.79 751.48 234.31 750.84 234.31
  L 742.14 234.31
  C 741.70 234.31 741.35 234.66 741.35 235.09
  L 741.35 248.60
  C 741.35 248.91 741.61 249.17 741.92 249.17
  L 751.78 249.17
  C 752.07 249.17 752.31 249.40 752.30 249.69
  C 752.07 261.29 751.91 270.64 751.80 277.75
  C 751.68 286.36 753.34 296.42 760.46 301.33
  C 768.82 307.11 780.45 306.13 789.63 302.14
  C 790.07 301.95 790.29 301.45 790.13 301.00
  L 785.64 288.28
  C 785.47 287.80 784.92 287.57 784.46 287.79
  C 779.95 289.95 774.01 290.52 771.30 285.33
  C 770.75 284.28 770.46 282.34 770.43 279.51
  C 770.25 265.60 770.23 255.90 770.37 250.40
  C 770.38 249.94 770.76 249.57 771.22 249.57
  L 785.90 249.57
  C 786.25 249.57 786.53 249.29 786.53 248.94
  L 786.53 235.11
  C 786.53 234.75 786.24 234.46 785.88 234.46
  L 770.83 234.46
  C 770.50 234.46 770.24 234.20 770.24 233.87
  L 770.24 215.16
  Z
  M 860.20 251.13
  C 856.24 243.48 850.18 238.17 842.01 235.22
  C 831.34 231.37 816.29 232.45 807.23 239.20
  C 792.36 250.30 787.35 268.87 795.10 285.53
  C 798.62 293.09 804.54 298.71 812.87 302.40
  C 825.93 308.18 841.79 305.88 853.24 297.61
  C 856.22 295.46 859.84 291.51 864.09 285.76
  C 869.25 278.78 874.05 270.53 879.34 263.63
  C 885.31 255.83 890.27 249.75 899.47 248.97
  C 908.23 248.23 915.61 252.86 917.53 261.50
  C 917.80 262.71 917.95 266.07 917.99 271.56
  C 918.04 277.97 918.04 288.53 918.00 303.24
  C 918.00 303.63 918.31 303.94 918.70 303.94
  L 935.52 303.94
  C 935.76 303.94 935.96 303.74 935.97 303.50
  C 936.33 288.89 936.36 275.33 936.07 262.83
  C 935.69 246.29 925.50 234.56 908.90 232.86
  C 895.33 231.47 883.71 235.32 874.06 244.42
  C 870.08 248.17 867.01 251.65 864.86 254.86
  C 856.76 266.93 850.58 275.49 846.32 280.55
  C 837.77 290.73 822.64 293.16 814.07 281.95
  C 810.00 276.62 809.33 268.90 811.45 262.93
  C 814.61 254.00 820.73 249.55 829.81 249.57
  C 836.84 249.59 842.10 253.26 845.48 259.13
  C 845.81 259.70 846.53 259.90 847.10 259.57
  L 859.90 252.18
  C 860.26 251.97 860.40 251.51 860.20 251.13
  Z
  M 716.26 243.05
  C 715.24 242.43 714.39 240.80 713.47 240.02
  C 708.82 236.09 703.88 233.80 698.64 233.17
  C 685.59 231.59 675.29 236.10 667.75 246.69
  C 664.21 251.66 662.00 257.27 661.11 263.51
  C 659.55 274.41 661.93 284.05 668.25 292.43
  C 675.42 301.94 685.15 306.19 697.45 305.18
  C 704.91 304.57 711.11 301.62 716.05 296.34
  C 716.32 296.05 716.81 296.25 716.81 296.65
  L 716.81 303.19
  C 716.81 303.60 717.14 303.93 717.55 303.93
  L 733.49 303.93
  C 733.85 303.93 734.15 303.63 734.15 303.26
  L 734.15 234.62
  C 734.15 234.27 733.87 233.99 733.53 233.99
  L 716.97 233.99
  C 716.70 233.99 716.48 234.21 716.48 234.48
  L 716.48 242.93
  C 716.48 243.04 716.36 243.11 716.26 243.05
  Z
  M 558.86 241.30
  L 558.86 234.48
  C 558.86 234.06 558.52 233.72 558.11 233.72
  L 542.10 233.72
  C 541.88 233.72 541.71 233.90 541.71 234.12
  L 541.71 303.32
  C 541.71 303.58 541.92 303.79 542.18 303.79
  L 558.61 303.79
  C 558.90 303.79 559.14 303.55 559.14 303.26
  C 559.09 289.43 559.12 277.67 559.23 267.98
  C 559.26 264.39 559.51 261.80 559.97 260.20
  C 561.89 253.51 566.46 249.63 573.75 249.60
  C 581.74 249.57 587.57 256.04 587.61 263.56
  C 587.71 284.09 587.71 297.37 587.62 303.42
  C 587.61 303.72 587.85 303.96 588.14 303.96
  L 604.88 303.96
  C 605.31 303.96 605.66 303.60 605.65 303.17
  C 605.62 298.30 605.59 286.55 605.57 267.94
  C 605.56 264.13 605.82 261.39 606.35 259.71
  C 608.51 252.80 614.44 248.70 621.90 249.72
  C 627.96 250.55 631.31 254.41 631.94 261.31
  C 632.43 266.68 632.66 270.16 632.63 271.76
  C 632.42 281.79 632.45 292.31 632.73 303.34
  C 632.74 303.63 632.98 303.87 633.28 303.87
  L 650.08 303.87
  C 650.29 303.87 650.46 303.70 650.46 303.49
  C 650.63 290.44 650.72 276.69 650.73 262.25
  C 650.74 252.51 646.29 240.50 637.05 235.98
  C 624.61 229.88 608.75 232.78 600.81 244.68
  C 600.67 244.89 600.36 244.89 600.22 244.67
  C 595.49 237.06 588.64 233.21 579.67 233.11
  C 571.61 233.02 564.93 235.85 559.63 241.60
  C 559.35 241.89 558.86 241.70 558.86 241.30
  Z
  M 966.85 274.82
  L 1018.64 274.82
  C 1019.12 274.82 1019.52 274.44 1019.55 273.96
  C 1020.09 265.42 1019.02 256.68 1014.51 249.14
  C 1008.25 238.69 997.89 233.17 985.60 233.02
  C 975.52 232.90 966.85 234.76 959.28 241.41
  C 949.14 250.31 945.60 261.88 947.39 275.24
  C 948.22 281.42 950.62 287.05 954.61 292.14
  C 963.56 303.57 976.89 306.51 991.30 304.94
  C 1000.56 303.94 1008.79 300.13 1015.98 293.50
  C 1016.44 293.08 1016.45 292.36 1016.01 291.92
  L 1005.99 281.90
  C 1005.73 281.64 1005.30 281.63 1005.03 281.88
  C 997.87 288.54 986.41 292.24 977.50 288.47
  C 971.71 286.02 967.97 281.72 966.27 275.59
  C 966.16 275.20 966.45 274.82 966.85 274.82
  Z
  M 1047.89 234.11
  L 1031.29 234.11
  C 1031.04 234.11 1030.83 234.31 1030.83 234.56
  L 1030.83 303.07
  C 1030.83 303.61 1031.26 304.04 1031.80 304.04
  L 1048.13 304.04
  C 1048.50 304.04 1048.80 303.74 1048.80 303.37
  C 1048.85 289.58 1048.82 280.81 1048.69 277.05
  C 1048.42 269.16 1048.85 263.85 1050.00 261.14
  C 1053.95 251.81 1063.30 249.99 1072.99 251.15
  C 1073.29 251.19 1073.55 250.96 1073.55 250.66
  L 1073.55 233.88
  C 1073.55 233.47 1073.23 233.13 1072.82 233.10
  C 1063.03 232.48 1055.09 235.95 1049.01 243.51
  C 1048.81 243.75 1048.42 243.61 1048.42 243.30
  L 1048.42 234.63
  C 1048.42 234.34 1048.18 234.11 1047.89 234.11
  Z
  M 1154.78 242.91
  C 1142.27 227.19 1119.26 231.15 1108.96 246.53
  C 1102.80 255.72 1101.07 266.21 1103.78 277.99
  C 1104.88 282.79 1107.39 286.61 1110.30 290.71
  C 1117.49 300.88 1130.28 304.26 1142.19 301.47
  C 1147.02 300.34 1151.13 297.90 1154.52 294.17
  C 1154.77 293.89 1155.24 294.05 1155.26 294.43
  C 1155.97 305.48 1152.11 315.58 1139.53 316.42
  C 1131.02 316.99 1123.12 314.46 1115.84 308.83
  C 1115.44 308.52 1114.87 308.63 1114.61 309.05
  L 1107.24 320.80
  C 1106.96 321.25 1107.05 321.83 1107.44 322.18
  C 1108.90 323.49 1110.60 324.68 1112.54 325.74
  C 1123.68 331.83 1135.53 333.57 1148.09 330.96
  C 1161.28 328.22 1171.66 317.01 1172.50 303.49
  C 1172.77 299.06 1173.02 293.04 1173.23 285.44
  C 1173.39 279.92 1173.10 274.02 1172.92 269.66
  C 1172.67 263.67 1173.79 254.99 1173.12 247.89
  C 1172.71 243.52 1173.40 238.66 1172.90 234.29
  C 1172.87 234.00 1172.63 233.79 1172.34 233.79
  L 1156.13 233.79
  C 1155.74 233.79 1155.42 234.11 1155.42 234.50
  L 1155.42 242.68
  C 1155.42 243.02 1154.99 243.18 1154.78 242.91
  Z
  M 1253.85 274.68
  C 1254.35 274.68 1254.76 274.27 1254.76 273.77
  C 1254.71 266.28 1254.79 259.41 1251.67 252.89
  C 1245.68 240.38 1235.49 233.77 1221.11 233.06
  C 1214.56 232.73 1208.29 233.89 1202.30 236.52
  C 1191.26 241.38 1184.11 253.01 1183.04 264.77
  C 1182.01 276.17 1185.07 285.91 1192.23 294.00
  C 1196.62 298.96 1202.02 302.23 1208.43 303.81
  C 1224.55 307.79 1238.52 304.28 1250.33 293.28
  C 1250.73 292.91 1250.74 292.28 1250.35 291.89
  L 1240.63 282.18
  C 1240.36 281.91 1239.93 281.89 1239.64 282.13
  C 1234.06 286.75 1227.03 289.83 1219.73 289.53
  C 1210.81 289.17 1204.35 283.97 1202.05 275.17
  C 1201.98 274.92 1202.17 274.68 1202.43 274.68
  L 1253.85 274.68
  Z
  M 886.44 304.17
  C 886.79 304.17 887.07 303.89 887.07 303.54
  L 887.07 261.44
  C 887.07 260.82 886.27 260.57 885.92 261.08
  L 868.83 285.98
  C 868.76 286.08 868.72 286.21 868.72 286.34
  L 868.72 303.54
  C 868.72 303.89 869.00 304.17 869.35 304.17
  L 886.44 304.17
  Z
  M 1072.3173 288.4356
  C 1069.60 294.54 1072.40 301.71 1078.5726 304.4548
  C 1084.74 307.20 1091.95 304.48 1094.6627 298.3844
  C 1097.38 292.28 1094.58 285.11 1088.4074 282.3652
  C 1082.24 279.62 1075.03 282.34 1072.3173 288.4356
  Z"
/>
<path fill="#a5c044" d="
  M 868.81 243.25
  C 868.49 243.46 868.06 243.23 868.06 242.85
  L 868.06 206.17
  C 868.06 205.89 868.28 205.67 868.56 205.67
  L 885.99 205.67
  C 886.30 205.67 886.56 205.93 886.56 206.24
  L 886.56 230.29
  C 886.56 230.97 886.15 231.58 885.52 231.83
  C 881.12 233.62 876.96 236.08 873.04 239.20
  C 871.47 240.45 870.10 242.39 868.81 243.25
  Z"
/>
<path fill="#a5c044" d="
  M 770.24 215.16
  L 770.24 233.87
  C 770.24 234.20 770.50 234.46 770.83 234.46
  L 785.88 234.46
  C 786.24 234.46 786.53 234.75 786.53 235.11
  L 786.53 248.94
  C 786.53 249.29 786.25 249.57 785.90 249.57
  L 771.22 249.57
  C 770.76 249.57 770.38 249.94 770.37 250.40
  C 770.23 255.90 770.25 265.60 770.43 279.51
  C 770.46 282.34 770.75 284.28 771.30 285.33
  C 774.01 290.52 779.95 289.95 784.46 287.79
  C 784.92 287.57 785.47 287.80 785.64 288.28
  L 790.13 301.00
  C 790.29 301.45 790.07 301.95 789.63 302.14
  C 780.45 306.13 768.82 307.11 760.46 301.33
  C 753.34 296.42 751.68 286.36 751.80 277.75
  C 751.91 270.64 752.07 261.29 752.30 249.69
  C 752.31 249.40 752.07 249.17 751.78 249.17
  L 741.92 249.17
  C 741.61 249.17 741.35 248.91 741.35 248.60
  L 741.35 235.09
  C 741.35 234.66 741.70 234.31 742.14 234.31
  L 750.84 234.31
  C 751.48 234.31 752.00 233.79 752.00 233.15
  L 752.00 215.38
  C 752.00 215.02 752.30 214.72 752.67 214.72
  L 769.80 214.72
  C 770.04 214.72 770.24 214.92 770.24 215.16
  Z"
/>
<path fill="#a5c044" d="
  M 860.20 251.13
  C 860.40 251.51 860.26 251.97 859.90 252.18
  L 847.10 259.57
  C 846.53 259.90 845.81 259.70 845.48 259.13
  C 842.10 253.26 836.84 249.59 829.81 249.57
  C 820.73 249.55 814.61 254.00 811.45 262.93
  C 809.33 268.90 810.00 276.62 814.07 281.95
  C 822.64 293.16 837.77 290.73 846.32 280.55
  C 850.58 275.49 856.76 266.93 864.86 254.86
  C 867.01 251.65 870.08 248.17 874.06 244.42
  C 883.71 235.32 895.33 231.47 908.90 232.86
  C 925.50 234.56 935.69 246.29 936.07 262.83
  C 936.36 275.33 936.33 288.89 935.97 303.50
  C 935.96 303.74 935.76 303.94 935.52 303.94
  L 918.70 303.94
  C 918.31 303.94 918.00 303.63 918.00 303.24
  C 918.04 288.53 918.04 277.97 917.99 271.56
  C 917.95 266.07 917.80 262.71 917.53 261.50
  C 915.61 252.86 908.23 248.23 899.47 248.97
  C 890.27 249.75 885.31 255.83 879.34 263.63
  C 874.05 270.53 869.25 278.78 864.09 285.76
  C 859.84 291.51 856.22 295.46 853.24 297.61
  C 841.79 305.88 825.93 308.18 812.87 302.40
  C 804.54 298.71 798.62 293.09 795.10 285.53
  C 787.35 268.87 792.36 250.30 807.23 239.20
  C 816.29 232.45 831.34 231.37 842.01 235.22
  C 850.18 238.17 856.24 243.48 860.20 251.13
  Z"
/>
<path fill="#a5c044" d="
  M 716.26 243.05
  C 716.36 243.11 716.48 243.04 716.48 242.93
  L 716.48 234.48
  C 716.48 234.21 716.70 233.99 716.97 233.99
  L 733.53 233.99
  C 733.87 233.99 734.15 234.27 734.15 234.62
  L 734.15 303.26
  C 734.15 303.63 733.85 303.93 733.49 303.93
  L 717.55 303.93
  C 717.14 303.93 716.81 303.60 716.81 303.19
  L 716.81 296.65
  C 716.81 296.25 716.32 296.05 716.05 296.34
  C 711.11 301.62 704.91 304.57 697.45 305.18
  C 685.15 306.19 675.42 301.94 668.25 292.43
  C 661.93 284.05 659.55 274.41 661.11 263.51
  C 662.00 257.27 664.21 251.66 667.75 246.69
  C 675.29 236.10 685.59 231.59 698.64 233.17
  C 703.88 233.80 708.82 236.09 713.47 240.02
  C 714.39 240.80 715.24 242.43 716.26 243.05
  Z
  M 698.7850 249.3591
  C 688.45 248.91 679.67 257.51 679.1878 268.5826
  C 678.70 279.65 686.70 288.99 697.0350 289.4409
  C 707.37 289.89 716.15 281.29 716.6322 270.2174
  C 717.12 259.15 709.12 249.81 698.7850 249.3591
  Z"
/>
<path fill="#a5c044" d="
  M 558.86 241.30
  C 558.86 241.70 559.35 241.89 559.63 241.60
  C 564.93 235.85 571.61 233.02 579.67 233.11
  C 588.64 233.21 595.49 237.06 600.22 244.67
  C 600.36 244.89 600.67 244.89 600.81 244.68
  C 608.75 232.78 624.61 229.88 637.05 235.98
  C 646.29 240.50 650.74 252.51 650.73 262.25
  C 650.72 276.69 650.63 290.44 650.46 303.49
  C 650.46 303.70 650.29 303.87 650.08 303.87
  L 633.28 303.87
  C 632.98 303.87 632.74 303.63 632.73 303.34
  C 632.45 292.31 632.42 281.79 632.63 271.76
  C 632.66 270.16 632.43 266.68 631.94 261.31
  C 631.31 254.41 627.96 250.55 621.90 249.72
  C 614.44 248.70 608.51 252.80 606.35 259.71
  C 605.82 261.39 605.56 264.13 605.57 267.94
  C 605.59 286.55 605.62 298.30 605.65 303.17
  C 605.66 303.60 605.31 303.96 604.88 303.96
  L 588.14 303.96
  C 587.85 303.96 587.61 303.72 587.62 303.42
  C 587.71 297.37 587.71 284.09 587.61 263.56
  C 587.57 256.04 581.74 249.57 573.75 249.60
  C 566.46 249.63 561.89 253.51 559.97 260.20
  C 559.51 261.80 559.26 264.39 559.23 267.98
  C 559.12 277.67 559.09 289.43 559.14 303.26
  C 559.14 303.55 558.90 303.79 558.61 303.79
  L 542.18 303.79
  C 541.92 303.79 541.71 303.58 541.71 303.32
  L 541.71 234.12
  C 541.71 233.90 541.88 233.72 542.10 233.72
  L 558.11 233.72
  C 558.52 233.72 558.86 234.06 558.86 234.48
  L 558.86 241.30
  Z"
/>
<path fill="#a5c044" d="
  M 966.85 274.82
  C 966.45 274.82 966.16 275.20 966.27 275.59
  C 967.97 281.72 971.71 286.02 977.50 288.47
  C 986.41 292.24 997.87 288.54 1005.03 281.88
  C 1005.30 281.63 1005.73 281.64 1005.99 281.90
  L 1016.01 291.92
  C 1016.45 292.36 1016.44 293.08 1015.98 293.50
  C 1008.79 300.13 1000.56 303.94 991.30 304.94
  C 976.89 306.51 963.56 303.57 954.61 292.14
  C 950.62 287.05 948.22 281.42 947.39 275.24
  C 945.60 261.88 949.14 250.31 959.28 241.41
  C 966.85 234.76 975.52 232.90 985.60 233.02
  C 997.89 233.17 1008.25 238.69 1014.51 249.14
  C 1019.02 256.68 1020.09 265.42 1019.55 273.96
  C 1019.52 274.44 1019.12 274.82 1018.64 274.82
  L 966.85 274.82
  Z
  M 983.86 262.47
  C 991.35 262.42 996.90 262.43 1000.50 262.47
  C 1000.92 262.48 1001.25 262.09 1001.16 261.67
  C 999.37 252.98 992.63 247.80 983.76 247.86
  C 974.90 247.91 968.23 253.17 966.54 261.88
  C 966.46 262.30 966.79 262.69 967.22 262.68
  C 970.81 262.58 976.36 262.51 983.86 262.47
  Z"
/>
<path fill="#a5c044" d="
  M 1047.89 234.11
  C 1048.18 234.11 1048.42 234.34 1048.42 234.63
  L 1048.42 243.30
  C 1048.42 243.61 1048.81 243.75 1049.01 243.51
  C 1055.09 235.95 1063.03 232.48 1072.82 233.10
  C 1073.23 233.13 1073.55 233.47 1073.55 233.88
  L 1073.55 250.66
  C 1073.55 250.96 1073.29 251.19 1072.99 251.15
  C 1063.30 249.99 1053.95 251.81 1050.00 261.14
  C 1048.85 263.85 1048.42 269.16 1048.69 277.05
  C 1048.82 280.81 1048.85 289.58 1048.80 303.37
  C 1048.80 303.74 1048.50 304.04 1048.13 304.04
  L 1031.80 304.04
  C 1031.26 304.04 1030.83 303.61 1030.83 303.07
  L 1030.83 234.56
  C 1030.83 234.31 1031.04 234.11 1031.29 234.11
  L 1047.89 234.11
  Z"
/>
<path fill="#a5c044" d="
  M 1154.78 242.91
  C 1154.99 243.18 1155.42 243.02 1155.42 242.68
  L 1155.42 234.50
  C 1155.42 234.11 1155.74 233.79 1156.13 233.79
  L 1172.34 233.79
  C 1172.63 233.79 1172.87 234.00 1172.90 234.29
  C 1173.40 238.66 1172.71 243.52 1173.12 247.89
  C 1173.79 254.99 1172.67 263.67 1172.92 269.66
  C 1173.10 274.02 1173.39 279.92 1173.23 285.44
  C 1173.02 293.04 1172.77 299.06 1172.50 303.49
  C 1171.66 317.01 1161.28 328.22 1148.09 330.96
  C 1135.53 333.57 1123.68 331.83 1112.54 325.74
  C 1110.60 324.68 1108.90 323.49 1107.44 322.18
  C 1107.05 321.83 1106.96 321.25 1107.24 320.80
  L 1114.61 309.05
  C 1114.87 308.63 1115.44 308.52 1115.84 308.83
  C 1123.12 314.46 1131.02 316.99 1139.53 316.42
  C 1152.11 315.58 1155.97 305.48 1155.26 294.43
  C 1155.24 294.05 1154.77 293.89 1154.52 294.17
  C 1151.13 297.90 1147.02 300.34 1142.19 301.47
  C 1130.28 304.26 1117.49 300.88 1110.30 290.71
  C 1107.39 286.61 1104.88 282.79 1103.78 277.99
  C 1101.07 266.21 1102.80 255.72 1108.96 246.53
  C 1119.26 231.15 1142.27 227.19 1154.78 242.91
  Z
  M 1138.1316 248.8814
  C 1128.47 248.76 1120.54 257.16 1120.4113 267.6263
  C 1120.28 278.10 1128.01 286.68 1137.6684 286.7986
  C 1147.33 286.92 1155.26 278.52 1155.3887 268.0537
  C 1155.52 257.58 1147.79 249.00 1138.1316 248.8814
  Z"
/>
<path fill="#a5c044" d="
  M 1253.85 274.68
  L 1202.43 274.68
  C 1202.17 274.68 1201.98 274.92 1202.05 275.17
  C 1204.35 283.97 1210.81 289.17 1219.73 289.53
  C 1227.03 289.83 1234.06 286.75 1239.64 282.13
  C 1239.93 281.89 1240.36 281.91 1240.63 282.18
  L 1250.35 291.89
  C 1250.74 292.28 1250.73 292.91 1250.33 293.28
  C 1238.52 304.28 1224.55 307.79 1208.43 303.81
  C 1202.02 302.23 1196.62 298.96 1192.23 294.00
  C 1185.07 285.91 1182.01 276.17 1183.04 264.77
  C 1184.11 253.01 1191.26 241.38 1202.30 236.52
  C 1208.29 233.89 1214.56 232.73 1221.11 233.06
  C 1235.49 233.77 1245.68 240.38 1251.67 252.89
  C 1254.79 259.41 1254.71 266.28 1254.76 273.77
  C 1254.76 274.27 1254.35 274.68 1253.85 274.68
  Z
  M 1219.36 262.12
  C 1226.73 262.10 1232.19 262.12 1235.73 262.18
  C 1236.15 262.18 1236.47 261.80 1236.38 261.38
  C 1234.65 252.84 1228.04 247.72 1219.32 247.75
  C 1210.60 247.78 1204.02 252.93 1202.34 261.49
  C 1202.26 261.91 1202.58 262.29 1203.00 262.28
  C 1206.54 262.20 1211.99 262.14 1219.36 262.12
  Z"
/>
<path fill="none" d="
  M 1219.36 262.12
  C 1211.99 262.14 1206.54 262.20 1203.00 262.28
  C 1202.58 262.29 1202.26 261.91 1202.34 261.49
  C 1204.02 252.93 1210.60 247.78 1219.32 247.75
  C 1228.04 247.72 1234.65 252.84 1236.38 261.38
  C 1236.47 261.80 1236.15 262.18 1235.73 262.18
  C 1232.19 262.12 1226.73 262.10 1219.36 262.12
  Z"
/>
<path fill="none" d="
  M 983.76 247.86
  C 992.63 247.80 999.37 252.98 1001.16 261.67
  C 1001.25 262.09 1000.92 262.48 1000.50 262.47
  C 996.90 262.43 991.35 262.42 983.86 262.47
  C 976.36 262.51 970.81 262.58 967.22 262.68
  C 966.79 262.69 966.46 262.30 966.54 261.88
  C 968.23 253.17 974.90 247.91 983.76 247.86
  Z"
/>
<ellipse fill="none" cx="0.00" cy="0.00" transform="translate(1137.90,267.84) rotate(-89.3)" rx="18.96" ry="17.49"/>
<ellipse fill="none" cx="0.00" cy="0.00" transform="translate(697.91,269.40) rotate(-87.5)" rx="20.06" ry="18.74"/>
<path fill="#a5c044" d="
  M 886.44 304.17
  L 869.35 304.17
  C 869.00 304.17 868.72 303.89 868.72 303.54
  L 868.72 286.34
  C 868.72 286.21 868.76 286.08 868.83 285.98
  L 885.92 261.08
  C 886.27 260.57 887.07 260.82 887.07 261.44
  L 887.07 303.54
  C 887.07 303.89 886.79 304.17 886.44 304.17
  Z"
/>
<ellipse fill="#a5c044" cx="0.00" cy="0.00" transform="translate(1083.49,293.41) rotate(-156.0)" rx="12.23" ry="12.09"/>
</svg>
